<?xml version="1.0" standalone="no"?>
<!DOCTYPE svg PUBLIC "-//W3C//DTD SVG 20010904//EN"
 "http://www.w3.org/TR/2001/REC-SVG-20010904/DTD/svg10.dtd">
<svg version="1.0" xmlns="http://www.w3.org/2000/svg"
 width="676.000000pt" height="681.000000pt" viewBox="0 0 676.000000 681.000000"
 preserveAspectRatio="xMidYMid meet">

<g transform="translate(0.000000,681.000000) scale(0.100000,-0.100000)"
fill="#000000" stroke="none">
<path d="M2339 5846 c-67 -24 -103 -54 -289 -241 l-185 -185 1200 0 1200 0
833 -832 833 -833 -3 290 -3 290 -27 55 c-23 45 -145 173 -710 737 -465 464
-697 689 -728 705 l-45 23 -1020 2 c-817 2 -1027 0 -1056 -11z"/>
<path d="M1268 4823 c-307 -308 -392 -398 -410 -438 -22 -48 -23 -62 -26 -340
l-3 -290 508 508 508 507 168 0 c92 0 167 -1 167 -3 0 -1 -299 -301 -664 -667
-598 -599 -666 -669 -676 -709 -18 -68 -5 -114 50 -179 26 -31 327 -336 669
-677 342 -341 621 -621 621 -622 0 -2 -75 -3 -167 -3 l-168 0 -508 508 -508
507 3 -290 c3 -278 4 -292 26 -340 18 -40 103 -130 410 -437 l387 -388 745 0
745 0 505 505 505 505 175 0 175 0 -505 -505 -505 -505 315 0 315 0 728 728
727 727 -808 -3 -807 -2 -293 -293 -292 -292 -503 503 -502 502 502 502 503
503 292 -292 293 -293 807 -2 808 -3 -727 728 -728 727 -315 0 -315 0 505
-505 505 -505 -175 0 -175 0 -505 505 -505 505 -745 0 -745 0 -387 -387z
m1742 -108 l55 -55 -660 -660 -660 -660 660 -660 660 -660 -55 -55 -54 -55
-69 0 -70 0 -715 715 -716 716 715 714 715 715 70 0 70 0 54 -55z"/>
<path d="M5095 2090 l-830 -830 -1200 0 -1200 0 189 -189 c118 -118 209 -200
240 -218 l51 -28 1035 0 1035 0 45 23 c31 16 263 241 728 705 565 564 687 692
710 737 27 54 27 58 30 280 2 124 2 253 0 288 l-3 62 -830 -830z"/>
</g>
</svg>
